<svg width="164" height="29" viewBox="0 0 164 29" fill="none" xmlns="http://www.w3.org/2000/svg">
<g id="logo">
<path id="Vector" d="M25.8676 9.40098C24.0151 9.3639 21.9774 9.86075 20.7028 11.2549L20.7176 4.603C20.7176 4.1803 20.7399 3.75761 20.6732 3.34974C20.3768 1.51806 19.5246 1.03603 17.6276 1.61446C15.9974 2.1039 14.6488 2.43019 13.1223 2.66008C9.46174 3.20884 5.92714 2.68233 2.53333 1.23626C1.96275 0.991539 1.44405 0.813561 0.925342 1.27334C0.354766 1.78502 0.213975 2.47468 0.510378 3.17176C1.22175 4.89963 2.68153 5.67828 4.37844 5.98233C6.30505 6.32345 8.18721 5.99716 10.0175 5.23334C11.0105 4.81064 12.4258 4.18772 13.478 3.943C14.4413 3.71311 15.1304 4.12098 15.3972 4.93671C15.4639 5.16659 15.5084 5.43356 15.5084 5.75985V28.3778H16.0122C16.5902 27.6808 17.5906 27.1023 18.591 27.1023C19.4357 27.1023 20.1322 27.525 20.9029 27.8736C22.3701 28.5261 23.9855 28.6448 25.1044 28.6448C27.8017 28.6448 29.6542 27.7549 31.151 26.4497C33.1517 24.6774 34.2336 21.5183 34.1966 18.4704C34.1225 13.4203 31.114 9.44547 25.8751 9.40839L25.8676 9.40098ZM28.2166 25.3448C27.3274 27.3915 25.675 28.1331 24.1337 28.1331C22.3627 28.096 20.7028 27.0949 20.7028 24.4697V11.863C21.3994 11.4403 22.2071 11.2475 23.2074 11.2475C27.3274 11.2475 28.9502 16.2605 29.0243 19.961C29.0614 21.6963 28.7576 24.0322 28.2166 25.3448Z" fill="black"/>
<path id="Vector_2" d="M46.1552 28.6301H35.2031V27.8959C35.9738 27.8959 38.0931 27.0876 38.0931 23.7654V16.4312C38.0931 14.0359 37.6336 12.8049 35.5514 12.7233V12.2191L42.7984 9.7867H43.3023V23.7579C43.3023 26.9615 45.5402 27.8885 46.1552 27.8885V28.6227V28.6301ZM40.2568 1.92603C41.9908 1.92603 43.3838 3.35726 43.3838 5.09254C43.3838 6.82782 41.9982 8.22198 40.2568 8.22198C38.5154 8.22198 37.1742 6.79074 37.1742 5.09254C37.1742 3.39434 38.5228 1.92603 40.2568 1.92603Z" fill="black"/>
<path id="Vector_3" d="M163.063 23.921C161.751 25.1594 159.788 25.7749 157.817 25.7749C156.238 25.7749 154.653 25.3522 153.534 24.4623C151.488 22.8828 150.562 20.5617 150.407 18.0922H163.367C163.522 13.0718 160.477 9.37134 155.342 9.37134C149.206 9.37134 145.234 12.9235 145.234 19.1379C145.234 24.7367 148.895 28.63 154.608 28.63C158.617 28.63 161.781 26.9318 163.441 24.188L163.056 23.921H163.063ZM150.377 17.1727C150.377 14.6662 151.111 10.7284 154.156 10.3428C156.935 9.99426 158.632 13.2794 158.632 16.8241L150.377 17.2839V17.1653V17.1727Z" fill="black"/>
<path id="Vector_4" d="M106.001 23.9137C104.689 25.1521 102.725 25.7676 100.754 25.7676C99.1758 25.7676 97.5901 25.3449 96.4712 24.455C94.426 22.8755 93.4997 20.5544 93.3441 18.0849H106.304C106.46 13.0645 103.414 9.36401 98.2792 9.36401C92.1437 9.36401 88.1719 12.9161 88.1719 19.1305C88.1719 24.7294 91.8324 28.6227 97.5456 28.6227C101.554 28.6227 104.719 26.9245 106.378 24.1806L105.993 23.9137H106.001ZM93.307 17.1654C93.307 14.6588 94.0407 10.7211 97.0862 10.3355C99.865 9.98693 101.562 13.2721 101.562 16.8168L93.307 17.2766V17.1579V17.1654Z" fill="black"/>
<path id="Vector_5" d="M128.336 14.8072C128.529 10.5654 132.619 9.36401 136.28 9.36401C138.821 9.36401 140.911 9.94244 142.259 11.0251L142.526 15.697H141.793C140.866 12.6863 138.821 10.2539 135.583 10.2539C133.427 10.2539 132.271 11.5294 132.271 12.9532C132.271 14.073 132.967 15.2299 134.427 15.8083C135.813 16.3496 137.124 16.7352 138.48 17.1579C141.296 18.0849 143.452 19.8573 143.341 23.1424C143.149 27.4287 139.177 28.6597 135.553 28.6227C133.204 28.6227 130.811 28.0442 128.847 27.1544L128.536 21.4813H129.27C130.389 24.7591 131.967 27.4658 135.168 27.7328C136.939 27.8885 138.947 27.3101 138.91 25.1076C138.91 24.1806 138.451 23.2537 137.636 22.6752C136.865 22.0968 135.82 21.6741 134.59 21.244C131.619 20.1613 128.188 18.7746 128.343 14.7997L128.336 14.8072Z" fill="black"/>
<path id="Vector_6" d="M108.875 28.5484V27.8143C109.646 27.8143 111.765 27.006 111.765 23.6837V16.3496C111.765 13.9543 111.305 12.7233 109.223 12.6417V12.1374L116.47 9.70508H116.974V14.6069C118.404 11.559 120.635 9.70508 123.532 9.70508C127.348 9.70508 127.348 15.1482 124.807 15.1482C122.991 15.1853 122.413 13.5242 120.487 13.5242C119.019 13.5242 117.9 14.644 116.974 16.1493V23.7875C116.974 26.9911 119.212 27.7995 119.827 27.7995V28.5336H108.875V28.5484Z" fill="black"/>
<path id="Vector_7" d="M66.7188 12.6787V12.1745L73.1581 9.74211H73.6175L80.5978 25.1446C81.6426 23.4093 83.1839 19.6644 83.1839 17.0392C83.1469 14.1841 80.909 13.7169 80.9461 11.559C80.9461 8.93379 86.4221 8.62233 86.4221 12.523C86.4221 14.414 85.3773 17.3877 84.1472 20.1612C82.8357 23.0978 81.2573 25.8713 79.4418 28.5781H76.3593L70.4608 15.8823C69.4605 13.7244 68.7639 12.7529 66.7188 12.6787Z" fill="black"/>
<path id="Vector_8" d="M57.0787 9.33423C51.0247 9.33423 47.1641 12.8864 47.1641 18.9821C47.1641 25.0778 50.8246 28.63 56.8046 28.63C62.7845 28.63 66.4451 24.8479 66.4451 18.9821C66.4451 13.1162 62.9327 9.33423 57.0713 9.33423H57.0787ZM57.0787 27.7401C52.7216 27.7401 52.4474 21.4515 52.4474 18.3221C52.4474 15.7785 52.9884 10.4911 56.4933 10.2538C60.8505 9.98681 61.1246 16.4311 61.1246 19.5902C61.1246 22.0967 60.5467 27.7327 57.0787 27.7327V27.7401Z" fill="black"/>
</g>
</svg>
